<svg width="67" height="21" viewBox="0 0 67 21" fill="none" xmlns="http://www.w3.org/2000/svg">
<g id="Pizza">
<path d="M0.413574 20.0001V1.81825H7.58687C8.96589 1.81825 10.1407 2.08162 11.1114 2.60838C12.082 3.12921 12.8218 3.85423 13.3308 4.78345C13.8457 5.70674 14.1032 6.77208 14.1032 7.97947C14.1032 9.18686 13.8428 10.2522 13.322 11.1755C12.8011 12.0988 12.0465 12.8179 11.0581 13.3328C10.0756 13.8477 8.88599 14.1052 7.48921 14.1052H2.91713V11.0246H6.86776C7.60758 11.0246 8.2172 10.8973 8.6966 10.6428C9.18192 10.3824 9.54295 10.0243 9.7797 9.5686C10.0224 9.10696 10.1437 8.57725 10.1437 7.97947C10.1437 7.37578 10.0224 6.84902 9.7797 6.39921C9.54295 5.94349 9.18192 5.59133 8.6966 5.34275C8.21128 5.08825 7.59575 4.96101 6.85001 4.96101H4.25768V20.0001H0.413574Z" fill="#AF5901"/>
<path d="M17.2791 20.0001V6.3637H21.061V20.0001H17.2791ZM19.1789 4.60589C18.6167 4.60589 18.1343 4.41946 17.7318 4.04659C17.3353 3.6678 17.137 3.21503 17.137 2.68828C17.137 2.16744 17.3353 1.72059 17.7318 1.34772C18.1343 0.968935 18.6167 0.779541 19.1789 0.779541C19.7412 0.779541 20.2206 0.968935 20.6171 1.34772C21.0196 1.72059 21.2208 2.16744 21.2208 2.68828C21.2208 3.21503 21.0196 3.6678 20.6171 4.04659C20.2206 4.41946 19.7412 4.60589 19.1789 4.60589Z" fill="#AF5901"/>
<path d="M24.7696 20.0001V17.7451L31.4457 9.47983V9.38217H25.0004V6.3637H36V8.82287L29.7323 16.8839V16.9816H36.2309V20.0001H24.7696Z" fill="#AF5901"/>
<path d="M39.8018 20.0001V17.7451L46.4779 9.47983V9.38217H40.0326V6.3637H51.0323V8.82287L44.7645 16.8839V16.9816H51.2631V20.0001H39.8018Z" fill="#AF5901"/>
<path d="M58.7935 20.2575C57.9235 20.2575 57.1482 20.1066 56.4676 19.8048C55.7869 19.497 55.2483 19.0442 54.8518 18.4464C54.4612 17.8428 54.2658 17.0911 54.2658 16.1915C54.2658 15.4339 54.4049 14.7977 54.6831 14.2827C54.9613 13.7678 55.3401 13.3535 55.8195 13.0398C56.2989 12.7262 56.8434 12.4894 57.453 12.3296C58.0685 12.1698 58.7136 12.0574 59.3884 11.9923C60.1814 11.9094 60.8207 11.8325 61.306 11.7614C61.7913 11.6845 62.1435 11.572 62.3624 11.4241C62.5814 11.2761 62.6909 11.0571 62.6909 10.7671V10.7138C62.6909 10.1516 62.5134 9.71657 62.1582 9.4088C61.8091 9.10104 61.3119 8.94715 60.6668 8.94715C59.9861 8.94715 59.4446 9.09808 59.0421 9.39993C58.6397 9.69585 58.3733 10.0687 58.2431 10.5185L54.7453 10.2344C54.9228 9.40584 55.272 8.6897 55.7928 8.08601C56.3137 7.47639 56.9854 7.00883 57.8081 6.68331C58.6367 6.35187 59.5955 6.18615 60.6845 6.18615C61.4421 6.18615 62.1671 6.27493 62.8596 6.45248C63.558 6.63004 64.1765 6.90525 64.7151 7.27812C65.2596 7.65099 65.6887 8.13039 66.0023 8.71633C66.316 9.29635 66.4729 9.99178 66.4729 10.8026V20.0001H62.8862V18.1091H62.7797C62.5607 18.5352 62.2677 18.9111 61.9008 19.2366C61.5338 19.5562 61.0929 19.8077 60.578 19.9912C60.0631 20.1687 59.4683 20.2575 58.7935 20.2575ZM59.8766 17.6474C60.433 17.6474 60.9242 17.5379 61.3504 17.319C61.7765 17.0941 62.1109 16.7922 62.3536 16.4134C62.5962 16.0346 62.7176 15.6055 62.7176 15.1261V13.679C62.5992 13.756 62.4364 13.827 62.2293 13.8921C62.028 13.9513 61.8002 14.0075 61.5457 14.0608C61.2912 14.1081 61.0367 14.1525 60.7822 14.194C60.5277 14.2295 60.2969 14.262 60.0897 14.2916C59.6458 14.3567 59.2582 14.4603 58.9267 14.6023C58.5953 14.7444 58.3378 14.9367 58.1543 15.1794C57.9709 15.4161 57.8791 15.7121 57.8791 16.0672C57.8791 16.5821 58.0656 16.9757 58.4384 17.2479C58.8172 17.5143 59.2966 17.6474 59.8766 17.6474Z" fill="#AF5901"/>
</g>
</svg>
