<svg width="24" height="25" viewBox="0 0 24 25" fill="none" xmlns="http://www.w3.org/2000/svg">
<g id="mingcute:menu-fill">
<g id="Group">
<path id="Vector" d="M20 17.8216C20.3852 17.8218 20.7556 17.9702 21.0344 18.236C21.3132 18.5018 21.479 18.8647 21.4975 19.2495C21.516 19.6343 21.3858 20.0114 21.1338 20.3028C20.8818 20.5942 20.5274 20.7774 20.144 20.8146L20 20.8216H4C3.61478 20.8214 3.24441 20.673 2.96561 20.4072C2.68682 20.1414 2.52099 19.7785 2.50248 19.3937C2.48396 19.0089 2.61419 18.6318 2.86618 18.3404C3.11816 18.049 3.47258 17.8658 3.856 17.8286L4 17.8216H20ZM20 10.8216C20.3978 10.8216 20.7794 10.9796 21.0607 11.2609C21.342 11.5422 21.5 11.9238 21.5 12.3216C21.5 12.7194 21.342 13.101 21.0607 13.3823C20.7794 13.6636 20.3978 13.8216 20 13.8216H4C3.60218 13.8216 3.22064 13.6636 2.93934 13.3823C2.65804 13.101 2.5 12.7194 2.5 12.3216C2.5 11.9238 2.65804 11.5422 2.93934 11.2609C3.22064 10.9796 3.60218 10.8216 4 10.8216H20ZM20 3.82159C20.3978 3.82159 20.7794 3.97963 21.0607 4.26093C21.342 4.54224 21.5 4.92377 21.5 5.32159C21.5 5.71942 21.342 6.10095 21.0607 6.38225C20.7794 6.66356 20.3978 6.82159 20 6.82159H4C3.60218 6.82159 3.22064 6.66356 2.93934 6.38225C2.65804 6.10095 2.5 5.71942 2.5 5.32159C2.5 4.92377 2.65804 4.54224 2.93934 4.26093C3.22064 3.97963 3.60218 3.82159 4 3.82159H20Z" fill="black"/>
</g>
</g>
</svg>
