<svg width="24" height="24" viewBox="0 0 24 24" fill="none" xmlns="http://www.w3.org/2000/svg">
<g id="iconamoon:search-light" clip-path="url(#clip0_14_1355)">
<path id="Vector" d="M22.0699 22.4429L17.2107 17.4036M17.2107 17.4036C18.0419 16.5417 18.7012 15.5183 19.151 14.3921C19.6009 13.2659 19.8324 12.0588 19.8324 10.8398C19.8324 9.62075 19.6009 8.41366 19.151 7.28743C18.7012 6.1612 18.0419 5.13789 17.2107 4.27591C16.3795 3.41393 15.3927 2.73017 14.3067 2.26367C13.2207 1.79717 12.0567 1.55707 10.8812 1.55707C9.70575 1.55707 8.54177 1.79717 7.45576 2.26367C6.36976 2.73017 5.38299 3.41393 4.55179 4.27591C2.87312 6.01675 1.93005 8.37784 1.93005 10.8398C1.93005 13.3017 2.87312 15.6628 4.55179 17.4036C6.23046 19.1445 8.50723 20.1225 10.8812 20.1225C13.2552 20.1225 15.532 19.1445 17.2107 17.4036Z" stroke="white" stroke-width="3" stroke-linecap="round" stroke-linejoin="round"/>
</g>
<defs>
<clipPath id="clip0_14_1355">
<rect width="24" height="24" fill="white"/>
</clipPath>
</defs>
</svg>
